<svg width="31" height="34" viewBox="0 0 31 34" fill="none" xmlns="http://www.w3.org/2000/svg">
<path d="M28.4175 19.4155C26.8976 18.4931 24.9759 18.5619 23.5255 19.5904C23.2417 19.7947 22.8649 19.8144 22.5614 19.6408L18.1284 17.078C18.0939 17.0581 18.0726 17.0212 18.0726 16.9813C18.0726 16.9414 18.0939 16.9045 18.1284 16.8845L22.5364 14.3362C22.8417 14.1617 23.2208 14.1826 23.505 14.3898C24.9541 15.4299 26.8824 15.5065 28.4092 14.5846C30.4284 13.3368 31.1376 10.7364 30.0322 8.63407C29.0271 6.76979 26.8529 5.86845 24.826 6.47584C22.7991 7.08324 21.4768 9.03239 21.6597 11.143C21.6925 11.4901 21.5212 11.8247 21.2207 12.0006L16.7895 14.5624C16.755 14.5823 16.7124 14.5823 16.6779 14.5624C16.6434 14.5424 16.6221 14.5055 16.6221 14.4656L16.6222 9.33995C16.6238 8.98992 16.8292 8.67301 17.1478 8.52898C19.0529 7.65171 20.0912 5.56468 19.6429 3.51352C19.1946 1.46235 17.3808 0.000313141 15.2839 5.02946e-08C13.187 -0.000313041 11.3727 1.46118 10.9239 3.51221C10.475 5.56324 11.5126 7.65058 13.4174 8.52843C13.7366 8.67243 13.9425 8.98963 13.9444 9.34016V14.4656C13.9444 14.5056 13.9231 14.5424 13.8886 14.5624C13.8541 14.5824 13.8116 14.5824 13.7771 14.5624L9.3457 12.0005C9.04547 11.8251 8.87417 11.4912 8.90664 11.1446C9.08755 9.05345 7.79027 7.11818 5.78901 6.49374C3.78775 5.86931 1.62225 6.72413 0.584858 8.54805C-0.452532 10.372 -0.0820279 12.6731 1.47526 14.0781C3.03254 15.4831 5.35661 15.6131 7.06047 14.3905C7.34492 14.183 7.72447 14.1617 8.03025 14.3362L12.4381 16.8845C12.4726 16.9045 12.4939 16.9413 12.4939 16.9813C12.4939 17.0212 12.4726 17.0581 12.4381 17.078L8.00514 19.6408C7.7016 19.8144 7.32485 19.7947 7.041 19.5904C5.5906 18.5619 3.66897 18.4931 2.149 19.4155C0.13556 20.6657 -0.569505 23.2622 0.534476 25.3612C1.54227 27.2296 3.72384 28.1299 5.75365 27.5151C7.78347 26.9003 9.10101 24.9402 8.90573 22.8257C8.8707 22.477 9.04205 22.1398 9.34424 21.9629L13.7771 19.4002C13.8116 19.3802 13.8541 19.3802 13.8886 19.4002C13.9231 19.4201 13.9444 19.457 13.9444 19.4969V24.6226C13.9428 24.9726 13.7374 25.2895 13.4188 25.4335C11.5136 26.3108 10.4754 28.3978 10.9236 30.449C11.3719 32.5002 13.1857 33.9622 15.2826 33.9626C17.3795 33.9629 19.1938 32.5014 19.6427 30.4504C20.0916 28.3993 19.054 26.312 17.1492 25.4341C16.83 25.2901 16.6241 24.9729 16.6222 24.6224V19.4969C16.6222 19.457 16.6434 19.4201 16.678 19.4001C16.7125 19.3802 16.755 19.3802 16.7895 19.4001L21.2223 21.9629C21.5245 22.1398 21.6959 22.477 21.6608 22.8257C21.4656 24.9402 22.7831 26.9003 24.8129 27.5151C26.8427 28.1299 29.0243 27.2296 30.0321 25.3612C31.1361 23.2622 30.431 20.6657 28.4175 19.4155Z" fill="#C4D600"/>
</svg>
