<svg width="218" height="47" viewBox="0 0 218 47" fill="none" xmlns="http://www.w3.org/2000/svg">
<path fill-rule="evenodd" clip-rule="evenodd" d="M54.848 15.5458H48.2042C47.806 15.4982 47.4078 15.6338 47.1213 15.9147C46.8348 16.1956 46.691 16.5915 46.7302 16.9911V17.6531C46.691 18.0527 46.8349 18.4485 47.1214 18.7294C47.4079 19.0103 47.8061 19.1459 48.2042 19.0983H51.8417V22.3497C50.702 22.9148 49.4455 23.2036 48.1737 23.1925C46.3655 23.2771 44.6047 22.5991 43.3189 21.3231C42.0332 20.0472 41.3404 18.2901 41.4087 16.4787C41.361 14.7101 42.0313 12.9976 43.2664 11.7324C44.5016 10.4672 46.1961 9.75731 47.963 9.76494C49.3399 9.70072 50.7093 10.002 51.9325 10.6382C52.7738 11.0297 53.4052 10.9696 53.9464 10.2167L54.6976 9.25347C54.9745 8.95959 55.0959 8.55168 55.0249 8.15395C54.9538 7.75622 54.6987 7.41576 54.3372 7.23622C52.403 6.11571 50.1969 5.55307 47.9631 5.61061C41.379 5.61061 36.6284 10.5482 36.6284 16.509C36.6284 22.4102 41.2888 27.3473 48.0837 27.3473C50.7191 27.3516 53.2841 26.4954 55.3899 24.9086C56.0027 24.5043 56.357 23.8063 56.322 23.0722V16.9911C56.3613 16.5915 56.2176 16.1956 55.931 15.9146C55.6445 15.6337 55.2462 15.498 54.848 15.5458ZM67.0869 11.2102C62.1867 11.2102 58.518 14.8232 58.518 19.2792C58.518 23.7646 62.1867 27.3473 67.0869 27.3473C71.9878 27.3473 75.6558 23.7347 75.6558 19.2792C75.6558 14.8232 71.9878 11.2102 67.0869 11.2102ZM63.0284 21.0282C63.7344 22.629 65.3402 23.6403 67.0869 23.5842C68.2086 23.5851 69.2828 23.131 70.0646 22.3255C70.8463 21.52 71.2689 20.4318 71.2359 19.3091C71.242 17.5591 70.1865 15.9807 68.5684 15.3198C66.9502 14.6589 65.0934 15.0478 63.8755 16.3028C62.6575 17.5577 62.3224 19.4274 63.0284 21.0282ZM89.7874 8.53089V7.38681C89.8269 6.98741 89.6833 6.59164 89.3971 6.31071C89.1108 6.02979 88.7128 5.89404 88.3148 5.94162H73.9427C73.5476 5.89534 73.1531 6.03267 72.8718 6.31438C72.5906 6.59608 72.4535 6.99118 72.4999 7.38681V8.53089C72.4535 8.92653 72.5906 9.32163 72.8718 9.60335C73.1531 9.88506 73.5476 10.0224 73.9427 9.97613H78.7535V25.5711C78.7072 25.9668 78.8444 26.362 79.1257 26.6437C79.4071 26.9255 79.8018 27.0627 80.197 27.0163H82.0009C82.396 27.0626 82.7907 26.9253 83.072 26.6436C83.3534 26.3619 83.4905 25.9668 83.4444 25.5711V9.97613H88.3148C88.7128 10.0237 89.1108 9.88793 89.3971 9.607C89.6833 9.32608 89.8269 8.9303 89.7874 8.53089ZM86.6321 19.2792C86.6321 14.8232 90.3001 11.2102 95.2003 11.2102C100.101 11.2102 103.769 14.8232 103.769 19.2792C103.769 23.7347 100.101 27.3473 95.2003 27.3473C90.3001 27.3473 86.6321 23.7646 86.6321 19.2792ZM95.2003 23.5842C93.4536 23.6403 91.8478 22.6289 91.1418 21.0282C90.4358 19.4274 90.771 17.5577 91.9889 16.3028C93.2068 15.0478 95.0637 14.6589 96.6818 15.3198C98.2999 15.9807 99.3554 17.5591 99.3493 19.3091C99.3822 20.4317 98.9596 21.5199 98.1779 22.3254C97.3961 23.1309 96.322 23.585 95.2003 23.5842ZM123.192 23.6397C123.411 23.6988 123.589 23.8563 123.674 24.0658L123.885 24.4574C124.095 24.9087 124.065 25.2401 123.734 25.4509C121.854 26.7447 119.612 27.4087 117.33 27.3474C110.175 27.3474 105.965 22.3497 105.965 16.4788C105.965 10.6084 110.175 5.61066 117.33 5.61066C119.55 5.55808 121.733 6.18861 123.584 7.41718C123.774 7.51456 123.914 7.68706 123.972 7.89288C124.029 8.09871 123.997 8.31909 123.885 8.50063L123.674 8.89225C123.589 9.10161 123.41 9.25907 123.192 9.31812C122.974 9.37717 122.741 9.33106 122.562 9.19342C120.978 8.25416 119.172 7.75525 117.33 7.74817C111.648 7.74817 108.371 11.7524 108.371 16.4788C108.371 21.2056 111.648 25.2098 117.33 25.2098C119.172 25.2027 120.978 24.7038 122.562 23.7646C122.741 23.6268 122.974 23.5807 123.192 23.6397ZM133.417 11.6619C129.103 11.7034 125.635 15.2301 125.66 19.5498C125.685 23.8696 129.193 27.356 133.507 27.3477C137.821 27.3394 141.316 23.8396 141.325 19.5198C141.3 15.1666 137.764 11.6531 133.417 11.6619ZM127.885 19.5501C127.829 22.6667 130.305 25.2398 133.417 25.3002C136.471 25.3168 138.968 22.8652 139.012 19.807C139.055 16.7488 136.629 14.227 133.575 14.1565C130.522 14.086 127.982 16.4931 127.885 19.5501ZM151.307 11.6619C148.982 11.5626 146.862 12.9901 146.077 15.1845V12.806C146.098 12.5845 146.019 12.365 145.862 12.2077C145.705 12.0504 145.486 11.9718 145.264 11.9934H144.573C144.357 11.9834 144.148 12.0669 143.998 12.2225C143.849 12.3781 143.773 12.5907 143.791 12.806V26.2033C143.768 26.4199 143.842 26.6356 143.992 26.7925C144.143 26.9494 144.356 27.0314 144.573 27.0164H145.264C145.486 27.038 145.705 26.9593 145.862 26.8019C146.019 26.6445 146.098 26.4249 146.077 26.2033V19.7305C146.106 14.8834 149.504 13.7095 151.157 13.7095C153.052 13.7095 154.946 14.8535 154.946 18.496V26.2033C154.924 26.4249 155.003 26.6444 155.16 26.8018C155.317 26.9593 155.536 27.0379 155.758 27.0164H156.449C156.67 27.0379 156.889 26.9593 157.047 26.8018C157.204 26.6444 157.282 26.4249 157.261 26.2033V18.496C157.261 13.5286 154.495 11.6619 151.307 11.6619ZM162.975 15.1845C163.76 12.9901 165.88 11.5626 168.205 11.6619C171.393 11.6619 174.159 13.5286 174.159 18.496V26.2033C174.18 26.4249 174.102 26.6444 173.944 26.8018C173.787 26.9592 173.568 27.0379 173.347 27.0164H172.656C172.434 27.0379 172.215 26.9592 172.058 26.8018C171.901 26.6444 171.822 26.4249 171.844 26.2033V18.496C171.844 14.8535 169.95 13.7095 168.055 13.7095C166.402 13.7095 163.004 14.8834 162.975 19.7305V26.2033C162.996 26.4249 162.917 26.6445 162.76 26.8019C162.603 26.9593 162.384 27.038 162.162 27.0164H161.471C161.254 27.0314 161.041 26.9494 160.89 26.7925C160.74 26.6356 160.666 26.4199 160.689 26.2033V12.806C160.671 12.5907 160.747 12.3781 160.896 12.2225C161.046 12.0669 161.255 11.9834 161.471 11.9934H162.162C162.384 11.9718 162.603 12.0504 162.76 12.2077C162.917 12.365 162.996 12.5845 162.975 12.806V15.1845ZM183.841 11.6619C181.719 11.6138 179.667 12.4286 178.155 13.9205C176.642 15.4123 175.798 17.454 175.814 19.5799C175.814 23.8252 179.061 27.3474 184.232 27.3474C186.299 27.4002 188.317 26.7056 189.914 25.3907C190.131 25.267 190.278 25.05 190.314 24.8028C190.349 24.5556 190.268 24.3059 190.095 24.1263L189.854 23.8853C189.569 23.5588 189.076 23.5187 188.742 23.7949C187.45 24.7886 185.862 25.3187 184.232 25.3003C180.534 25.3003 177.918 22.8317 178.129 19.4895H190.546C191.087 19.4895 191.418 19.1883 191.328 18.6769C190.937 13.8601 187.509 11.6619 183.841 11.6619ZM183.902 13.7095C181.354 13.6243 179.07 15.2688 178.339 17.7137H189.012C188.321 14.6125 185.976 13.7095 183.902 13.7095ZM202.213 13.7095C203.413 13.719 204.591 14.0294 205.64 14.6125C206.122 14.8535 206.452 14.8233 206.753 14.4018L206.964 14.1309C207.119 13.9595 207.183 13.7237 207.135 13.4972C207.088 13.2706 206.934 13.0808 206.723 12.9868C205.335 12.1423 203.747 11.6849 202.123 11.6619C196.681 11.6619 193.674 15.2447 193.674 19.6401C193.705 23.9152 196.801 27.3474 202.123 27.3474C203.594 27.3382 205.04 26.966 206.332 26.2639C207.084 25.8723 207.234 25.3301 206.933 24.9086L206.753 24.6378C206.648 24.4461 206.465 24.3095 206.251 24.2633C206.038 24.2172 205.815 24.266 205.64 24.3972C204.591 24.9801 203.413 25.2905 202.213 25.3002C198.515 25.3002 196.019 22.8615 195.989 19.5198C196.019 16.178 198.515 13.7095 202.213 13.7095ZM213.153 11.991H217.515C217.646 11.9789 217.775 12.0258 217.868 12.1189C217.961 12.212 218.008 12.3418 217.996 12.473V13.3465C218.014 13.479 217.969 13.612 217.874 13.7064C217.78 13.8008 217.647 13.8459 217.515 13.8285H213.153V22.9643C213.153 24.5273 213.88 24.9983 214.693 24.9983H216.764C216.98 24.9751 217.196 25.049 217.353 25.2002C217.509 25.3513 217.591 25.5641 217.576 25.7815V26.2037C217.598 26.4252 217.519 26.6447 217.362 26.802C217.205 26.9592 216.985 27.0379 216.764 27.0163L214.693 27.0163C212.751 27.0163 210.837 26.0836 210.837 22.6892V13.8285H208.791C208.46 13.8285 208.31 13.678 208.31 13.3465V12.473C208.293 12.3407 208.338 12.2078 208.432 12.1135C208.526 12.0191 208.659 11.9738 208.791 11.991H210.837L211.288 8.13525C211.294 7.94542 211.379 7.76672 211.521 7.64128C211.663 7.51584 211.851 7.45479 212.04 7.47252H212.431C212.624 7.44761 212.817 7.51138 212.958 7.64596C213.098 7.78055 213.17 7.97149 213.153 8.16531V11.991Z" fill="#53565A"/>
<path d="M28.4175 19.4155C26.8976 18.4931 24.9759 18.5619 23.5255 19.5904C23.2417 19.7947 22.8649 19.8144 22.5614 19.6408L18.1284 17.078C18.0939 17.0581 18.0726 17.0212 18.0726 16.9813C18.0726 16.9414 18.0939 16.9045 18.1284 16.8845L22.5364 14.3362C22.8417 14.1617 23.2208 14.1826 23.505 14.3898C24.9541 15.4299 26.8824 15.5065 28.4092 14.5846C30.4284 13.3368 31.1376 10.7364 30.0322 8.63407C29.0271 6.76979 26.8529 5.86845 24.826 6.47584C22.7991 7.08324 21.4768 9.03239 21.6597 11.143C21.6925 11.4901 21.5212 11.8247 21.2207 12.0006L16.7895 14.5624C16.755 14.5823 16.7124 14.5823 16.6779 14.5624C16.6434 14.5424 16.6221 14.5055 16.6221 14.4656L16.6222 9.33995C16.6238 8.98992 16.8292 8.67301 17.1478 8.52898C19.0529 7.65171 20.0912 5.56468 19.6429 3.51352C19.1946 1.46235 17.3808 0.000313141 15.2839 5.02946e-08C13.187 -0.000313041 11.3727 1.46118 10.9239 3.51221C10.475 5.56324 11.5126 7.65058 13.4174 8.52843C13.7366 8.67243 13.9425 8.98963 13.9444 9.34016V14.4656C13.9444 14.5056 13.9231 14.5424 13.8886 14.5624C13.8541 14.5824 13.8116 14.5824 13.7771 14.5624L9.3457 12.0005C9.04547 11.8251 8.87417 11.4912 8.90664 11.1446C9.08755 9.05345 7.79027 7.11818 5.78901 6.49374C3.78775 5.86931 1.62225 6.72413 0.584858 8.54805C-0.452532 10.372 -0.0820279 12.6731 1.47526 14.0781C3.03254 15.4831 5.35661 15.6131 7.06047 14.3905C7.34492 14.183 7.72447 14.1617 8.03025 14.3362L12.4381 16.8845C12.4726 16.9045 12.4939 16.9413 12.4939 16.9813C12.4939 17.0212 12.4726 17.0581 12.4381 17.078L8.00514 19.6408C7.7016 19.8144 7.32485 19.7947 7.041 19.5904C5.5906 18.5619 3.66897 18.4931 2.149 19.4155C0.13556 20.6657 -0.569505 23.2622 0.534476 25.3612C1.54227 27.2296 3.72384 28.1299 5.75365 27.5151C7.78347 26.9003 9.10101 24.9402 8.90573 22.8257C8.8707 22.477 9.04205 22.1398 9.34424 21.9629L13.7771 19.4002C13.8116 19.3802 13.8541 19.3802 13.8886 19.4002C13.9231 19.4201 13.9444 19.457 13.9444 19.4969V24.6226C13.9428 24.9726 13.7374 25.2895 13.4188 25.4335C11.5136 26.3108 10.4754 28.3978 10.9236 30.449C11.3719 32.5002 13.1857 33.9622 15.2826 33.9626C17.3795 33.9629 19.1938 32.5014 19.6427 30.4504C20.0916 28.3993 19.054 26.312 17.1492 25.4341C16.83 25.2901 16.6241 24.9729 16.6222 24.6224V19.4969C16.6222 19.457 16.6434 19.4201 16.678 19.4001C16.7125 19.3802 16.755 19.3802 16.7895 19.4001L21.2223 21.9629C21.5245 22.1398 21.6959 22.477 21.6608 22.8257C21.4656 24.9402 22.7831 26.9003 24.8129 27.5151C26.8427 28.1299 29.0243 27.2296 30.0321 25.3612C31.1361 23.2622 30.431 20.6657 28.4175 19.4155Z" fill="#C4D600"/>
<path fill-rule="evenodd" clip-rule="evenodd" d="M115.02 36.7C114.927 36.3507 114.772 36.0211 114.562 35.7271C114.482 35.6085 114.39 35.4982 114.288 35.3978L114.206 35.3157C114.165 35.2841 114.126 35.2499 114.089 35.2132C114.054 35.179 114.016 35.149 113.974 35.1237C113.923 35.0813 113.868 35.0446 113.809 35.0143C113.755 34.9878 113.705 34.9556 113.659 34.9183C113.529 34.8445 113.391 34.7871 113.247 34.7472C113.102 34.7059 112.956 34.6628 112.81 34.6169C112.771 34.6002 112.729 34.591 112.687 34.5895C112.646 34.589 112.604 34.5843 112.564 34.5756C112.516 34.5571 112.465 34.5478 112.413 34.5482C112.362 34.549 112.311 34.5397 112.263 34.5209H112.194C112.118 34.5024 112.039 34.4956 111.961 34.5005C111.879 34.5051 111.797 34.5075 111.715 34.5075H107.76C107.741 34.5166 107.719 34.5189 107.698 34.5139C107.678 34.5095 107.656 34.512 107.636 34.5209C107.555 34.544 107.484 34.592 107.432 34.6582C107.377 34.7734 107.356 34.9015 107.37 35.0282C107.374 35.2017 107.377 35.3524 107.377 35.4804V43.6756C107.377 43.7762 107.381 43.8741 107.39 43.9701C107.392 44.051 107.427 44.1275 107.486 44.1825C107.547 44.2305 107.621 44.2571 107.698 44.2581C107.785 44.2627 107.878 44.2645 107.979 44.2645H108.773C108.846 44.2648 108.919 44.2695 108.991 44.2785C109.06 44.2878 109.13 44.2831 109.197 44.2645C109.295 44.2473 109.383 44.1934 109.443 44.1138C109.493 44.0216 109.514 43.9167 109.505 43.8124C109.5 43.6849 109.498 43.5657 109.498 43.4562V41.1746C109.484 41.0467 109.536 40.9203 109.635 40.8389C109.726 40.7785 109.834 40.7495 109.943 40.7563H112.03C112.084 40.7475 112.139 40.743 112.194 40.7429C112.249 40.7428 112.304 40.7382 112.358 40.729C112.466 40.7019 112.576 40.6836 112.687 40.6742C112.794 40.6657 112.9 40.6426 113.001 40.6056C113.31 40.5054 113.606 40.3697 113.884 40.2013C114.145 40.0408 114.371 39.8287 114.548 39.578C114.592 39.5248 114.631 39.4673 114.665 39.4064C114.696 39.347 114.73 39.2854 114.767 39.2214C114.785 39.1852 114.801 39.1509 114.815 39.1189C114.829 39.0869 114.844 39.0526 114.863 39.0159C115.005 38.6898 115.093 38.3427 115.123 37.9883C115.156 37.5561 115.121 37.1215 115.02 36.7ZM113.077 37.5978C113.083 37.7237 113.076 37.8499 113.057 37.9744C113.02 38.0931 112.984 38.2007 112.946 38.2967C112.911 38.3906 112.866 38.4803 112.81 38.5638C112.586 38.8458 112.253 39.0199 111.893 39.0433C111.452 39.0912 111.009 39.1141 110.565 39.1119C110.474 39.1119 110.376 39.1143 110.271 39.1189C110.166 39.1235 110.068 39.1235 109.977 39.1189C109.893 39.1156 109.81 39.0994 109.731 39.0707C109.664 39.0485 109.606 39.0052 109.567 38.9473C109.515 38.8529 109.492 38.7461 109.498 38.6389V36.6383C109.493 36.5373 109.512 36.4365 109.553 36.3439C109.585 36.2655 109.65 36.2053 109.731 36.1792C109.756 36.1795 109.781 36.1772 109.806 36.1723C109.831 36.1671 109.857 36.1603 109.882 36.1519C110.1 36.1519 110.333 36.1496 110.579 36.1449C110.826 36.1403 111.065 36.1426 111.298 36.1519C111.516 36.1595 111.734 36.1847 111.948 36.227C112.126 36.2598 112.297 36.3224 112.454 36.4121C112.599 36.4947 112.724 36.6069 112.823 36.7413C112.918 36.8885 112.988 37.0506 113.029 37.2208C113.06 37.3442 113.076 37.4707 113.077 37.5978Z" fill="#A7A8AA"/>
<path fill-rule="evenodd" clip-rule="evenodd" d="M122.658 40.921C122.695 40.7678 122.695 40.6081 122.658 40.4549C122.64 40.4069 122.635 40.3548 122.644 40.3042C122.654 40.2537 122.649 40.2016 122.631 40.1535C122.622 40.1177 122.617 40.081 122.617 40.0441C122.617 40.007 122.613 39.9701 122.603 39.9342C122.594 39.8931 122.585 39.852 122.576 39.8108C122.567 39.7696 122.558 39.7285 122.549 39.6874C122.531 39.6083 122.509 39.5305 122.48 39.4547C122.435 39.3267 122.393 39.2056 122.357 39.0915C122.321 38.9782 122.27 38.8699 122.207 38.7692C122.143 38.6691 122.081 38.5731 122.022 38.4817C121.962 38.3904 121.897 38.299 121.824 38.2077C121.747 38.1032 121.657 38.0088 121.557 37.9266C121.451 37.8399 121.349 37.7601 121.248 37.6869C120.932 37.4694 120.583 37.3029 120.216 37.1935C119.768 37.0674 119.304 37.0119 118.84 37.0288C118.777 37.0381 118.713 37.0427 118.648 37.0427C118.58 37.0431 118.511 37.0476 118.443 37.0562C118.312 37.0915 118.18 37.1191 118.046 37.1387C117.92 37.1565 117.796 37.1886 117.677 37.2343C117.576 37.2802 117.476 37.3214 117.376 37.3576C117.278 37.3933 117.181 37.4345 117.088 37.481C116.78 37.674 116.5 37.9068 116.253 38.1733C116.008 38.4522 115.809 38.7692 115.665 39.1119C115.619 39.2206 115.583 39.3329 115.556 39.4477C115.528 39.5622 115.496 39.6786 115.459 39.7974C115.442 39.8385 115.433 39.8826 115.433 39.9272C115.432 39.971 115.428 40.0147 115.419 40.0575C115.4 40.1031 115.393 40.1524 115.398 40.2013C115.402 40.2495 115.4 40.298 115.391 40.3455V40.4415C115.369 40.5172 115.358 40.5955 115.357 40.6743C115.35 40.7525 115.357 40.8312 115.377 40.9071V41.0304C115.378 41.0719 115.382 41.1132 115.391 41.1538C115.41 41.2278 115.419 41.3038 115.419 41.3801C115.419 41.4562 115.428 41.532 115.446 41.6059C115.463 41.6449 115.472 41.6868 115.473 41.7293C115.475 41.7717 115.484 41.8135 115.5 41.8527C115.528 41.9533 115.553 42.0493 115.576 42.1407C115.598 42.2317 115.633 42.3193 115.679 42.4008C115.82 42.7357 116.014 43.0457 116.253 43.319C116.491 43.5834 116.768 43.8099 117.075 43.9905C117.169 44.043 117.268 44.0888 117.368 44.1278C117.465 44.1646 117.568 44.2011 117.677 44.2372C117.76 44.2744 117.848 44.302 117.937 44.3198C118.028 44.3379 118.12 44.3606 118.21 44.388C118.249 44.3964 118.288 44.4011 118.327 44.4019C118.362 44.4023 118.396 44.407 118.43 44.4158C118.475 44.434 118.525 44.441 118.573 44.4362C118.621 44.4314 118.67 44.4338 118.717 44.4431H118.854C118.93 44.4634 119.009 44.4703 119.087 44.4635C119.16 44.4615 119.233 44.4547 119.305 44.4431C119.335 44.443 119.365 44.4406 119.394 44.4362C119.424 44.4317 119.453 44.4294 119.483 44.4292C119.533 44.4197 119.583 44.4152 119.634 44.4158C119.685 44.4164 119.736 44.4069 119.784 44.3879C119.903 44.3605 120.019 44.3355 120.133 44.3128C120.248 44.2896 120.36 44.2551 120.469 44.2098C120.878 44.0449 121.257 43.8135 121.591 43.5249C121.917 43.2281 122.174 42.8632 122.343 42.456C122.39 42.3618 122.427 42.263 122.453 42.161C122.48 42.0562 122.513 41.9533 122.549 41.8526C122.558 41.7891 122.567 41.7293 122.577 41.6746C122.586 41.6144 122.6 41.5549 122.617 41.4965C122.636 41.4249 122.643 41.3509 122.638 41.2771C122.633 41.2034 122.64 41.1294 122.658 41.0578V40.921ZM120.743 40.5509C120.76 40.6828 120.76 40.8164 120.743 40.9483C120.734 40.9912 120.729 41.0349 120.729 41.0787V41.2085C120.72 41.2421 120.715 41.2767 120.715 41.3115C120.714 41.3462 120.71 41.3808 120.701 41.4144C120.674 41.515 120.651 41.611 120.632 41.7019C120.614 41.7956 120.587 41.8874 120.551 41.976C120.461 42.1874 120.336 42.382 120.181 42.5515C120.02 42.717 119.823 42.8435 119.606 42.9216C119.541 42.9493 119.472 42.9679 119.401 42.9767C119.328 42.9859 119.254 42.9995 119.182 43.0176H119.073C119.034 43.0269 118.995 43.0293 118.956 43.0245C118.917 43.0204 118.878 43.0136 118.84 43.0041C118.809 42.9952 118.776 42.9928 118.744 42.9972C118.712 43.0015 118.679 42.9991 118.648 42.9902C118.567 42.9723 118.487 42.9494 118.409 42.9216C118.333 42.8953 118.262 42.8584 118.196 42.8122C117.996 42.7009 117.825 42.5436 117.697 42.3531C117.574 42.1434 117.475 41.9205 117.403 41.6885C117.385 41.6186 117.371 41.5476 117.362 41.4761C117.352 41.4047 117.338 41.3338 117.321 41.2637V41.1404C117.299 41.046 117.287 40.9494 117.287 40.8524C117.279 40.7559 117.286 40.6588 117.307 40.5644V40.4276C117.307 40.3815 117.312 40.3355 117.321 40.2903C117.339 40.1901 117.355 40.0895 117.368 39.9889C117.381 39.8915 117.402 39.7954 117.43 39.7013C117.506 39.4674 117.619 39.2475 117.766 39.0503C117.91 38.8606 118.101 38.7118 118.32 38.6185C118.369 38.5899 118.422 38.5691 118.477 38.5568C118.536 38.5434 118.598 38.5272 118.662 38.5091C118.693 38.4995 118.726 38.4971 118.758 38.5021C118.791 38.5073 118.825 38.5 118.854 38.4817C118.936 38.4817 119.018 38.4794 119.1 38.4748C119.178 38.4699 119.257 38.4768 119.333 38.4952C119.397 38.5137 119.456 38.5295 119.511 38.5434C119.565 38.5568 119.62 38.5731 119.675 38.5912C119.887 38.68 120.075 38.8187 120.222 38.9955C120.369 39.181 120.488 39.3863 120.578 39.6054C120.605 39.6785 120.626 39.7541 120.64 39.8312C120.654 39.9091 120.669 39.9847 120.688 40.0575C120.698 40.0837 120.702 40.1116 120.701 40.1396C120.711 40.1892 120.715 40.2397 120.715 40.2903C120.714 40.342 120.724 40.3934 120.743 40.4415V40.5509Z" fill="#A7A8AA"/>
<path d="M123.036 37.1934H124.049C124.15 37.1934 124.246 37.1958 124.337 37.2004C124.414 37.2008 124.49 37.2221 124.556 37.2621C124.611 37.2985 124.655 37.3479 124.686 37.4058C124.719 37.4709 124.745 37.5399 124.761 37.6113C124.779 37.6892 124.797 37.7666 124.815 37.8441C124.834 37.922 124.853 37.9929 124.87 38.0569C124.981 38.3804 125.075 38.7097 125.151 39.0433C125.229 39.3814 125.317 39.715 125.418 40.0441C125.435 40.0954 125.449 40.1479 125.459 40.2013C125.469 40.2548 125.483 40.3075 125.5 40.3589C125.545 40.4962 125.584 40.6353 125.617 40.7772C125.648 40.9184 125.687 41.0578 125.732 41.1951C125.751 41.2591 125.774 41.3319 125.801 41.4144C125.82 41.4884 125.878 41.5461 125.952 41.5651C125.997 41.5744 126.033 41.5494 126.061 41.4895C126.081 41.4446 126.104 41.4011 126.13 41.3592C126.176 41.23 126.21 41.097 126.233 40.9618C126.255 40.8265 126.289 40.6935 126.334 40.5644C126.362 40.4814 126.385 40.3968 126.403 40.3112C126.421 40.2245 126.44 40.1396 126.458 40.0575C126.521 39.8382 126.579 39.6143 126.629 39.386C126.679 39.1579 126.736 38.934 126.8 38.7145C126.827 38.6139 126.85 38.5184 126.869 38.4265C126.887 38.334 126.91 38.2426 126.937 38.1524C126.973 38.0156 127.01 37.8513 127.047 37.6595C127.062 37.5058 127.135 37.3638 127.251 37.2621C127.319 37.2245 127.394 37.2034 127.471 37.2004C127.553 37.1957 127.644 37.1934 127.744 37.1934H128.456C128.566 37.1934 128.666 37.1981 128.757 37.2069C128.841 37.2134 128.921 37.2418 128.99 37.2894C129.036 37.3263 129.069 37.3765 129.085 37.4332C129.104 37.4925 129.122 37.5496 129.141 37.6043C129.177 37.7323 129.207 37.858 129.23 37.9813C129.253 38.1095 129.288 38.2356 129.332 38.3583C129.442 38.7144 129.534 39.0799 129.612 39.4546C129.69 39.8293 129.779 40.1947 129.879 40.5508C129.916 40.6606 129.946 40.7728 129.968 40.8866C129.99 40.996 130.02 41.1036 130.058 41.2084C130.083 41.3084 130.119 41.4051 130.167 41.4964C130.176 41.5062 130.188 41.5133 130.201 41.5168C130.217 41.5235 130.229 41.5358 130.236 41.5511C130.3 41.5524 130.361 41.5183 130.393 41.4621C130.415 41.412 130.44 41.355 130.468 41.291C130.524 41.1411 130.57 40.9877 130.605 40.8319C130.641 40.6719 130.682 40.5142 130.728 40.3589C130.755 40.268 130.778 40.1785 130.796 40.0917C130.815 40.005 130.838 39.916 130.865 39.8246C130.965 39.5423 131.047 39.2539 131.111 38.9611C131.174 38.6741 131.251 38.3905 131.343 38.1116C131.395 37.9617 131.437 37.8083 131.467 37.6525C131.483 37.5144 131.546 37.3862 131.645 37.2894C131.71 37.2431 131.785 37.2146 131.864 37.2068C131.955 37.1975 132.046 37.193 132.137 37.1934H133.096C133.165 37.1917 133.234 37.2009 133.301 37.2207C133.382 37.2449 133.441 37.3147 133.451 37.3988C133.459 37.4921 133.445 37.5859 133.411 37.6729C133.347 37.8834 133.285 38.0867 133.225 38.2827C133.166 38.4793 133.1 38.6826 133.027 38.8925C132.808 39.5598 132.596 40.229 132.391 40.9C132.185 41.572 131.973 42.2413 131.755 42.908C131.708 43.0541 131.666 43.1979 131.624 43.3398C131.583 43.4812 131.54 43.6251 131.494 43.7715C131.457 43.8722 131.424 43.9612 131.392 44.0386C131.357 44.1191 131.29 44.1812 131.207 44.2098C131.096 44.2589 130.973 44.2778 130.852 44.2645C130.705 44.2557 130.573 44.2512 130.454 44.251C130.308 44.251 130.125 44.2533 129.907 44.258C129.749 44.2721 129.59 44.251 129.442 44.1963C129.389 44.154 129.347 44.1 129.319 44.0386C129.289 43.9748 129.266 43.9081 129.25 43.8397C129.205 43.7173 129.171 43.5913 129.147 43.4631C129.124 43.3398 129.095 43.2141 129.058 43.0861C129.031 43.003 129.008 42.9183 128.99 42.8325C128.97 42.7412 128.943 42.6518 128.907 42.5654C128.826 42.3006 128.755 42.0265 128.695 41.7431C128.636 41.4604 128.561 41.1812 128.47 40.907C128.413 40.7366 128.367 40.5627 128.333 40.3862C128.306 40.2214 128.229 40.0687 128.114 39.948C128.04 39.9374 127.969 39.9802 127.943 40.0505C127.92 40.1191 127.895 40.1901 127.867 40.2629C127.805 40.4415 127.757 40.6248 127.724 40.8111C127.691 40.9975 127.643 41.1808 127.58 41.3592C127.48 41.6885 127.396 42.0244 127.327 42.3669C127.26 42.7067 127.175 43.0429 127.073 43.3742C127.056 43.4382 127.037 43.511 127.019 43.5931C127 43.6756 126.983 43.7531 126.964 43.8263C126.946 43.8973 126.921 43.9661 126.889 44.0318C126.862 44.0898 126.822 44.1412 126.772 44.1825C126.717 44.2226 126.65 44.2442 126.581 44.2442C126.499 44.2488 126.408 44.2511 126.308 44.2511H125.185C125.13 44.2423 125.08 44.233 125.035 44.2238C124.992 44.2158 124.951 44.2019 124.912 44.1825C124.846 44.135 124.798 44.0677 124.775 43.9905C124.747 43.9084 124.72 43.8263 124.692 43.7438C124.647 43.607 124.601 43.4654 124.556 43.319C124.51 43.1729 124.464 43.0268 124.419 42.8808C124.191 42.2046 123.974 41.5285 123.769 40.8524C123.563 40.1762 123.351 39.5001 123.132 38.824C123.069 38.6417 123.009 38.4632 122.955 38.2897C122.9 38.1163 122.845 37.9424 122.791 37.769C122.772 37.7142 122.751 37.6386 122.729 37.5427C122.703 37.4679 122.711 37.3859 122.749 37.3168C122.798 37.2661 122.859 37.2284 122.927 37.2069C122.964 37.2097 123.001 37.2051 123.036 37.1934Z" fill="#A7A8AA"/>
<path fill-rule="evenodd" clip-rule="evenodd" d="M140.609 40.921C140.627 40.8398 140.627 40.7555 140.609 40.6743L140.609 40.5235C140.59 40.4451 140.583 40.3643 140.588 40.2838C140.594 40.2033 140.587 40.1224 140.568 40.044C140.531 39.916 140.499 39.788 140.472 39.66C140.446 39.5339 140.409 39.4102 140.362 39.2899C140.343 39.2353 140.323 39.1827 140.305 39.1319C140.29 39.0896 140.275 39.0486 140.26 39.0089C140.228 38.9218 140.189 38.8371 140.144 38.7557C140.071 38.6458 140.002 38.5387 139.938 38.4334C139.874 38.3286 139.806 38.2257 139.733 38.125C139.688 38.0984 139.65 38.0608 139.623 38.0156C139.556 37.9391 139.483 37.868 139.405 37.8032C139.326 37.7371 139.244 37.6753 139.158 37.6182C138.881 37.4293 138.579 37.2793 138.262 37.1725C137.875 37.0509 137.469 36.9977 137.064 37.0153C136.996 37.0239 136.928 37.0283 136.859 37.0287C136.791 37.0291 136.722 37.0337 136.654 37.0426C136.507 37.0793 136.368 37.109 136.236 37.1317C136.102 37.155 135.971 37.1941 135.846 37.2481C134.931 37.6155 134.209 38.3443 133.848 39.2626C133.792 39.3948 133.751 39.5328 133.725 39.6739C133.697 39.82 133.666 39.9707 133.629 40.1261L133.588 40.4548V40.6195C133.579 40.6691 133.576 40.7199 133.581 40.7702C133.586 40.8249 133.588 40.875 133.588 40.9209L133.616 41.3044C133.623 41.4257 133.646 41.5455 133.684 41.661C133.692 41.6946 133.697 41.729 133.697 41.7635C133.697 41.7983 133.702 41.8328 133.711 41.8665C133.755 41.971 133.792 42.0786 133.82 42.1883C133.848 42.2941 133.885 42.3973 133.931 42.4967C134.07 42.8068 134.259 43.0917 134.491 43.3398C134.723 43.5848 134.985 43.7989 135.272 43.9769C135.347 44.024 135.427 44.063 135.511 44.0933L135.791 44.1963C135.877 44.2435 135.97 44.278 136.065 44.2988C136.166 44.3215 136.266 44.3424 136.366 44.3604C136.414 44.3793 136.465 44.3886 136.517 44.3878C136.568 44.3873 136.619 44.3967 136.668 44.4157C136.725 44.4331 136.786 44.4377 136.845 44.4291C136.909 44.4198 136.974 44.4198 137.037 44.4291C137.089 44.4388 137.142 44.4456 137.195 44.4495C137.248 44.4548 137.302 44.4478 137.352 44.4291H137.502C137.54 44.4197 137.58 44.4173 137.619 44.4221C137.657 44.4268 137.697 44.4246 137.735 44.4157C137.838 44.3891 137.943 44.3707 138.049 44.3605C138.152 44.3506 138.253 44.3277 138.35 44.2923C138.691 44.1853 139.014 44.0282 139.309 43.8262C139.579 43.6278 139.811 43.3817 139.993 43.1C140.063 43.0037 140.127 42.9028 140.184 42.7981C140.243 42.688 140.294 42.5736 140.335 42.4559C140.354 42.4032 140.361 42.347 140.356 42.2913C140.359 42.2419 140.335 42.1946 140.294 42.1679C140.235 42.1323 140.17 42.1089 140.103 42.0993H139.966C139.916 42.0806 139.862 42.0736 139.808 42.0789C139.749 42.0836 139.692 42.0859 139.637 42.0859C139.518 42.0859 139.389 42.0836 139.247 42.0789C139.127 42.0704 139.007 42.0916 138.898 42.1406C138.826 42.1671 138.763 42.2121 138.714 42.2709C138.664 42.3303 138.615 42.3919 138.57 42.4559C138.499 42.5433 138.413 42.6174 138.316 42.6748C138.217 42.7395 138.114 42.7991 138.009 42.8534C137.935 42.8807 137.86 42.9058 137.783 42.9285C137.705 42.9515 137.621 42.9721 137.53 42.9902H137.407C137.298 43.0095 137.188 43.0142 137.078 43.0041C136.976 42.9987 136.876 42.9849 136.777 42.9628C136.698 42.9365 136.618 42.9159 136.537 42.9011C136.457 42.8864 136.38 42.8561 136.312 42.8121C136.144 42.7162 135.998 42.5881 135.88 42.4351C135.764 42.2698 135.674 42.0872 135.613 41.8939C135.596 41.8429 135.584 41.79 135.579 41.7362C135.574 41.6825 135.562 41.6296 135.545 41.5786C135.536 41.5303 135.541 41.4805 135.559 41.4348C135.591 41.3405 135.66 41.2636 135.751 41.2224C135.801 41.2034 135.854 41.1941 135.908 41.1951H139.432C139.514 41.1951 139.607 41.1974 139.712 41.202C139.818 41.2066 139.922 41.2066 140.027 41.202C140.123 41.1981 140.22 41.189 140.315 41.1747C140.386 41.1666 140.455 41.1406 140.513 41.0991C140.568 41.0553 140.602 40.9909 140.609 40.921ZM138.576 39.5298C138.628 39.6376 138.621 39.7648 138.556 39.8655C138.488 39.9494 138.383 39.9933 138.275 39.9824C138.134 39.987 137.999 39.9889 137.872 39.9889H135.983C135.878 39.9944 135.774 39.9708 135.682 39.9207C135.638 39.8861 135.607 39.8378 135.593 39.7834C135.579 39.7274 135.577 39.6692 135.587 39.6123C135.596 39.5513 135.612 39.4914 135.634 39.4338C135.657 39.3749 135.677 39.3266 135.696 39.29C135.875 38.9263 136.197 38.6533 136.585 38.5364C136.633 38.5176 136.684 38.5061 136.736 38.5021C136.787 38.4984 136.838 38.4868 136.886 38.4678C136.918 38.4589 136.951 38.4589 136.982 38.4678C137.015 38.4776 137.05 38.4727 137.078 38.4543C137.384 38.4457 137.686 38.5191 137.954 38.6667C138.171 38.8071 138.345 39.0036 138.46 39.2353C138.487 39.2994 138.526 39.3976 138.576 39.5298Z" fill="#A7A8AA"/>
<path d="M145.563 37.0288C145.653 37.0277 145.742 37.0369 145.83 37.0562C145.905 37.073 145.971 37.1169 146.015 37.1795C146.08 37.294 146.108 37.4255 146.097 37.5565V38.0291C146.097 38.1297 146.099 38.2442 146.104 38.3718C146.113 38.4747 146.096 38.5782 146.056 38.6732C146.023 38.7346 145.966 38.7794 145.898 38.7966C145.822 38.8159 145.744 38.8251 145.666 38.8239C145.579 38.8239 145.488 38.8197 145.393 38.8105C145.303 38.8009 145.213 38.8055 145.125 38.8239C145.063 38.8422 144.999 38.8537 144.934 38.8582C144.873 38.8624 144.813 38.8739 144.755 38.8926C144.602 38.9417 144.456 39.0085 144.318 39.0915C144.186 39.1663 144.069 39.2663 143.975 39.386C143.93 39.4592 143.882 39.5344 143.832 39.6123C143.782 39.6897 143.734 39.7695 143.688 39.852C143.661 39.9253 143.636 40.0006 143.613 40.0779C143.59 40.1558 143.57 40.2314 143.551 40.3042C143.533 40.3687 143.524 40.4356 143.524 40.5027C143.525 40.57 143.515 40.6369 143.497 40.7016C143.488 40.7352 143.485 40.7701 143.49 40.8046C143.495 40.8344 143.492 40.8649 143.483 40.8936V41.113C143.464 41.1822 143.46 41.2544 143.47 41.3253C143.478 41.4003 143.482 41.4757 143.483 41.5512V43.5931C143.483 43.7122 143.478 43.8217 143.47 43.9223C143.465 44.0104 143.436 44.0956 143.387 44.169C143.365 44.1988 143.334 44.2205 143.298 44.2307C143.256 44.2447 143.212 44.256 143.168 44.2646H143.1C143.05 44.2742 143 44.2788 142.949 44.2785H142.21C142.153 44.2693 142.096 44.2646 142.039 44.2646H141.854C141.809 44.2465 141.763 44.2307 141.717 44.2168C141.673 44.2044 141.637 44.1712 141.622 44.1277C141.581 44.0696 141.559 44 141.56 43.9288C141.555 43.8421 141.553 43.753 141.553 43.6617V37.5839C141.55 37.5093 141.569 37.4354 141.608 37.3715C141.654 37.2982 141.729 37.2482 141.814 37.2342C141.922 37.2146 142.032 37.2054 142.142 37.2069H142.84C142.936 37.2059 143.032 37.2129 143.127 37.2278C143.207 37.2398 143.278 37.2876 143.319 37.3576C143.35 37.4168 143.367 37.4827 143.367 37.5496C143.372 37.6317 143.378 37.7119 143.387 37.7893C143.395 37.8618 143.411 37.933 143.436 38.0017C143.451 38.0604 143.505 38.1004 143.565 38.0977C143.579 38.0817 143.599 38.0718 143.62 38.0704C143.641 38.0691 143.661 38.0592 143.674 38.043C143.729 37.9973 143.778 37.9443 143.818 37.8853C143.861 37.8242 143.914 37.7709 143.975 37.7277C144.011 37.7014 144.043 37.6716 144.072 37.6386C144.1 37.6055 144.132 37.5756 144.167 37.5496C144.25 37.4949 144.334 37.44 144.42 37.385C144.507 37.3302 144.596 37.2802 144.688 37.2342C144.779 37.1981 144.872 37.1661 144.967 37.1387C145.064 37.1109 145.162 37.0834 145.262 37.0562C145.314 37.0458 145.367 37.0435 145.419 37.0492C145.497 37.0543 145.545 37.0474 145.563 37.0288Z" fill="#A7A8AA"/>
<path fill-rule="evenodd" clip-rule="evenodd" d="M153.104 40.921C153.123 40.8398 153.123 40.7555 153.104 40.6743V40.5235C153.085 40.4451 153.079 40.3643 153.084 40.2838C153.089 40.2033 153.082 40.1224 153.064 40.044C153.027 39.916 152.995 39.788 152.968 39.66C152.941 39.5339 152.904 39.4102 152.858 39.2899C152.838 39.2353 152.819 39.1826 152.801 39.1319C152.785 39.0895 152.77 39.0486 152.756 39.0089C152.723 38.9218 152.684 38.8371 152.639 38.7557C152.566 38.6458 152.498 38.5387 152.434 38.4334C152.37 38.3286 152.301 38.2257 152.229 38.125C152.184 38.0984 152.146 38.0608 152.119 38.0156C152.052 37.9391 151.979 37.868 151.9 37.8032C151.822 37.7371 151.739 37.6753 151.654 37.6182C151.377 37.4293 151.075 37.2793 150.757 37.1725C150.37 37.0509 149.965 36.9977 149.56 37.0153C149.492 37.0239 149.423 37.0283 149.355 37.0287C149.286 37.0291 149.218 37.0337 149.149 37.0426C149.003 37.0793 148.864 37.109 148.732 37.1317C148.598 37.155 148.467 37.1941 148.342 37.2481C147.427 37.6155 146.704 38.3443 146.344 39.2626C146.288 39.3948 146.247 39.5328 146.221 39.6739C146.193 39.82 146.161 39.9707 146.125 40.1261L146.084 40.4548V40.6195C146.074 40.6691 146.072 40.7199 146.077 40.7702C146.082 40.8249 146.084 40.875 146.084 40.9209L146.111 41.3044C146.119 41.4257 146.142 41.5455 146.18 41.661C146.188 41.6946 146.192 41.729 146.193 41.7635C146.193 41.7983 146.198 41.8328 146.207 41.8665C146.251 41.971 146.287 42.0786 146.316 42.1883C146.344 42.2941 146.381 42.3973 146.426 42.4967C146.565 42.8068 146.755 43.0917 146.987 43.3398C147.219 43.5848 147.481 43.7989 147.767 43.9769C147.843 44.024 147.923 44.063 148.006 44.0933L148.287 44.1963C148.373 44.2435 148.465 44.278 148.561 44.2988C148.661 44.3215 148.761 44.3424 148.862 44.3604C148.91 44.3793 148.961 44.3886 149.012 44.3878C149.064 44.3873 149.115 44.3967 149.163 44.4157C149.221 44.4331 149.282 44.4377 149.341 44.4291C149.405 44.4198 149.469 44.4198 149.533 44.4291C149.585 44.4388 149.637 44.4456 149.69 44.4495C149.744 44.4548 149.797 44.4478 149.848 44.4291H149.998C150.036 44.4197 150.075 44.4173 150.114 44.4221C150.153 44.4268 150.192 44.4246 150.23 44.4157C150.334 44.3891 150.439 44.3707 150.545 44.3605C150.648 44.3506 150.749 44.3277 150.846 44.2923C151.187 44.1853 151.51 44.0282 151.805 43.8262C152.075 43.6278 152.307 43.3817 152.488 43.1C152.559 43.0037 152.623 42.9029 152.68 42.7981C152.739 42.688 152.789 42.5736 152.831 42.4559C152.85 42.4032 152.857 42.347 152.851 42.2913C152.855 42.2419 152.831 42.1946 152.789 42.1679C152.731 42.1323 152.666 42.1089 152.599 42.0993H152.461C152.411 42.0806 152.357 42.0736 152.304 42.0789C152.245 42.0836 152.187 42.0859 152.133 42.0859C152.014 42.0859 151.884 42.0836 151.743 42.0789C151.623 42.0704 151.503 42.0916 151.394 42.1406C151.322 42.1671 151.258 42.2121 151.209 42.2709C151.159 42.3303 151.111 42.3919 151.066 42.4559C150.995 42.5433 150.909 42.6174 150.812 42.6748C150.712 42.7395 150.61 42.7991 150.504 42.8534C150.431 42.8807 150.356 42.9058 150.278 42.9285C150.201 42.9515 150.116 42.9721 150.026 42.9902H149.902C149.794 43.0095 149.683 43.0142 149.574 43.0041C149.472 42.9987 149.372 42.9849 149.272 42.9628C149.194 42.9365 149.114 42.9159 149.033 42.9011C148.952 42.8864 148.876 42.8561 148.808 42.8121C148.64 42.7162 148.493 42.5881 148.376 42.4351C148.259 42.2698 148.169 42.0872 148.109 41.8939C148.092 41.8429 148.08 41.79 148.075 41.7362C148.07 41.6825 148.058 41.6296 148.041 41.5786C148.032 41.5303 148.036 41.4805 148.054 41.4348C148.086 41.3405 148.156 41.2636 148.246 41.2224C148.296 41.2034 148.35 41.1941 148.404 41.1951H151.928C152.009 41.1951 152.103 41.1974 152.208 41.202C152.313 41.2066 152.418 41.2066 152.523 41.202C152.619 41.1981 152.715 41.189 152.811 41.1747C152.882 41.1666 152.95 41.1406 153.009 41.0991C153.064 41.0553 153.098 40.9909 153.104 40.921ZM151.072 39.5298C151.124 39.6376 151.116 39.7648 151.052 39.8655C150.984 39.9494 150.878 39.9933 150.771 39.9824C150.629 39.987 150.495 39.9889 150.367 39.9889H148.479C148.374 39.9944 148.27 39.9708 148.178 39.9207C148.134 39.8861 148.102 39.8378 148.089 39.7834C148.075 39.7274 148.073 39.6692 148.082 39.6123C148.092 39.5513 148.107 39.4914 148.129 39.4338C148.153 39.3749 148.173 39.3266 148.192 39.29C148.371 38.9262 148.693 38.6533 149.081 38.5364C149.129 38.5176 149.18 38.5061 149.232 38.5021C149.283 38.4984 149.334 38.4868 149.382 38.4678C149.413 38.4589 149.447 38.4589 149.478 38.4678C149.51 38.4776 149.545 38.4727 149.573 38.4543C149.879 38.4457 150.182 38.5191 150.45 38.6667C150.666 38.8071 150.841 39.0036 150.955 39.2353C150.983 39.2994 151.022 39.3976 151.072 39.5298Z" fill="#A7A8AA"/>
<path fill-rule="evenodd" clip-rule="evenodd" d="M160.946 43.8741V43.4975H160.946V34.9253C160.95 34.827 160.926 34.7297 160.877 34.6443C160.829 34.5788 160.753 34.5386 160.672 34.5348C160.572 34.5251 160.471 34.5205 160.371 34.5209H159.399C159.382 34.53 159.363 34.5325 159.344 34.5279C159.326 34.5233 159.306 34.5257 159.29 34.5348C159.203 34.544 159.126 34.5951 159.084 34.6716C159.034 34.7562 159.012 34.8548 159.023 34.9526C159.028 35.076 159.03 35.1882 159.03 35.2884V37.262C159.03 37.2943 159.026 37.3265 159.017 37.3575V37.4948C158.999 37.5382 158.989 37.5846 158.989 37.6316C158.992 37.6718 158.97 37.7098 158.934 37.7276C158.876 37.7735 158.794 37.7735 158.736 37.7276C158.667 37.6821 158.615 37.6455 158.578 37.6182C158.515 37.5727 158.455 37.5291 158.401 37.4878C158.36 37.4574 158.317 37.4259 158.272 37.393C158.256 37.3814 158.239 37.3695 158.223 37.3575C158.11 37.2929 157.991 37.2423 157.866 37.2068C157.738 37.1706 157.607 37.1294 157.47 37.0835C157.391 37.0629 157.311 37.0492 157.23 37.0426C157.134 37.0334 157.036 37.0287 156.936 37.0287C156.835 37.0287 156.735 37.0311 156.635 37.0357C156.552 37.0378 156.469 37.0493 156.389 37.07C156.319 37.0878 156.248 37.1014 156.177 37.1108C156.109 37.1199 156.043 37.1337 155.978 37.1521C155.697 37.2429 155.429 37.3721 155.184 37.5361C155.147 37.5543 155.115 37.5799 155.088 37.6112C155.062 37.6426 155.029 37.6683 154.992 37.6868C154.947 37.7234 154.906 37.7601 154.869 37.7962C154.83 37.8354 154.794 37.8765 154.76 37.9196C154.739 37.949 154.714 37.9746 154.685 37.9952C154.655 38.0151 154.629 38.0406 154.61 38.0703C154.421 38.3116 154.26 38.5738 154.131 38.8517C154.086 38.949 154.049 39.0498 154.02 39.1531C153.994 39.2538 153.961 39.3586 153.925 39.468C153.898 39.5578 153.877 39.6494 153.863 39.7421C153.85 39.8339 153.833 39.9295 153.816 40.0301C153.798 40.071 153.791 40.1159 153.795 40.1604C153.799 40.2038 153.797 40.2476 153.788 40.2902V40.4206C153.788 40.4643 153.783 40.508 153.774 40.5509C153.764 40.5981 153.76 40.6464 153.761 40.6946C153.76 40.7475 153.765 40.8003 153.774 40.8523C153.783 40.8952 153.788 40.9388 153.788 40.9826V41.1129C153.797 41.1439 153.8 41.1764 153.795 41.2084C153.79 41.2405 153.792 41.2734 153.802 41.3044C153.82 41.3958 153.836 41.4853 153.85 41.572C153.863 41.6588 153.88 41.7385 153.897 41.8118C153.914 41.8485 153.923 41.888 153.925 41.9282C153.925 41.963 153.93 41.9975 153.939 42.0312C153.975 42.1318 154.008 42.2296 154.034 42.3256C154.064 42.4263 154.1 42.5247 154.144 42.6201C154.297 42.9511 154.498 43.2581 154.739 43.5314C154.973 43.8061 155.265 44.0242 155.595 44.169C155.695 44.2144 155.798 44.2533 155.903 44.2854C156.007 44.3174 156.115 44.3512 156.224 44.3879C156.274 44.4056 156.328 44.4127 156.381 44.4087C156.439 44.4048 156.497 44.4117 156.553 44.4291C156.628 44.4521 156.707 44.4637 156.785 44.4634C156.868 44.4706 156.951 44.4637 157.032 44.4431H157.155C157.194 44.4435 157.233 44.4411 157.272 44.4361C157.31 44.431 157.349 44.4287 157.387 44.4291C157.423 44.4201 157.46 44.4156 157.497 44.4157C157.539 44.4145 157.581 44.405 157.62 44.3878C157.766 44.3512 157.903 44.3104 158.031 44.2645C158.076 44.2464 158.12 44.2283 158.161 44.2098C158.201 44.1917 158.24 44.1736 158.277 44.155C158.34 44.1096 158.401 44.0706 158.455 44.0386C158.51 44.0065 158.569 43.9677 158.633 43.9222C158.678 43.8763 158.724 43.8309 158.77 43.785C158.831 43.7339 158.91 43.7092 158.989 43.7164L159.037 43.7646C159.043 43.7713 159.051 43.7787 159.059 43.7867C159.067 43.7947 159.075 43.8033 159.084 43.8124C159.111 43.883 159.13 43.9567 159.14 44.0317C159.148 44.1044 159.188 44.1696 159.249 44.2098C159.302 44.2494 159.367 44.271 159.433 44.2715C159.511 44.2761 159.595 44.2784 159.687 44.2784H160.439C160.522 44.2791 160.604 44.2723 160.686 44.2581C160.753 44.2473 160.815 44.2162 160.863 44.169C160.922 44.0823 160.951 43.9787 160.946 43.8741ZM159.091 40.6947C159.096 40.7336 159.094 40.7731 159.084 40.8111L159.084 40.8111V41.0578C159.084 41.0903 159.08 41.1226 159.071 41.1538C159.053 41.1948 159.046 41.2396 159.05 41.2841C159.054 41.3276 159.052 41.3716 159.043 41.4144C159.025 41.515 159.007 41.6083 158.989 41.695C158.97 41.7823 158.943 41.8673 158.906 41.9486C158.82 42.1631 158.7 42.3622 158.551 42.538C158.398 42.7043 158.211 42.8352 158.003 42.9216C157.933 42.9483 157.859 42.9668 157.785 42.9768C157.711 42.9859 157.637 42.9995 157.565 43.0176C157.518 43.0275 157.469 43.0298 157.421 43.0245C157.378 43.0227 157.334 43.0158 157.292 43.0041C157.236 43.0058 157.181 43.0011 157.127 42.9902C156.952 42.9588 156.785 42.8936 156.635 42.7982C156.25 42.5562 155.967 42.1806 155.841 41.7432C155.823 41.6699 155.807 41.6018 155.793 41.5378C155.779 41.4738 155.764 41.4051 155.745 41.3319C155.745 41.3111 155.743 41.2905 155.739 41.2702C155.734 41.2455 155.731 41.2203 155.731 41.1951C155.708 41.0938 155.694 40.9905 155.69 40.8867C155.68 40.7746 155.684 40.6617 155.704 40.5509V40.3589C155.73 40.2647 155.748 40.1686 155.759 40.0714C155.768 39.9785 155.786 39.8867 155.814 39.7973C155.89 39.5456 156 39.3057 156.142 39.0846C156.28 38.873 156.481 38.71 156.717 38.6185C156.771 38.5913 156.829 38.5706 156.888 38.5568C156.947 38.5434 157.013 38.5272 157.086 38.5091C157.158 38.4929 157.232 38.4837 157.306 38.4817C157.677 38.4569 158.046 38.5582 158.352 38.7692C158.604 38.975 158.795 39.2449 158.906 39.5506C158.943 39.6239 158.969 39.7024 158.982 39.7834C158.995 39.8655 159.011 39.9573 159.029 40.0575C159.049 40.1386 159.063 40.2211 159.071 40.3042C159.079 40.3956 159.084 40.4869 159.084 40.5783C159.084 40.6172 159.087 40.656 159.091 40.6947Z" fill="#A7A8AA"/>
<path fill-rule="evenodd" clip-rule="evenodd" d="M172.893 40.6673C172.897 40.5729 172.888 40.4783 172.866 40.3863L172.866 40.2903C172.857 40.2361 172.854 40.181 172.859 40.1262C172.864 40.075 172.857 40.0234 172.838 39.9755C172.821 39.9102 172.81 39.8437 172.804 39.7765C172.799 39.7138 172.788 39.6518 172.77 39.5915C172.734 39.4639 172.7 39.3406 172.668 39.2214C172.636 39.105 172.597 38.9907 172.551 38.8792C172.39 38.4996 172.163 38.1516 171.881 37.8511C171.588 37.5589 171.239 37.3303 170.855 37.1796C170.774 37.1435 170.688 37.1183 170.601 37.1044C170.506 37.0888 170.412 37.0682 170.32 37.0428C170.284 37.0335 170.247 37.0311 170.211 37.0358C170.179 37.0408 170.146 37.0384 170.115 37.0288H169.76C169.69 37.0284 169.621 37.0376 169.554 37.0562C169.482 37.0743 169.409 37.0858 169.335 37.0905C169.26 37.0954 169.186 37.1117 169.116 37.1388C168.971 37.1806 168.829 37.2331 168.692 37.296C168.563 37.3563 168.439 37.4273 168.322 37.5084C168.258 37.5544 168.199 37.5979 168.144 37.6387C168.088 37.6813 168.028 37.7202 167.967 37.7551C167.943 37.7654 167.917 37.7701 167.892 37.769C167.864 37.7709 167.836 37.761 167.816 37.7416C167.784 37.7363 167.757 37.7122 167.748 37.6799C167.739 37.6479 167.729 37.609 167.72 37.5635C167.701 37.4781 167.692 37.3906 167.693 37.3029V35.5077C167.693 35.3978 167.697 35.268 167.706 35.1172C167.718 34.9956 167.709 34.8728 167.679 34.7541C167.657 34.6397 167.563 34.5533 167.447 34.5413C167.306 34.5267 167.164 34.5199 167.023 34.5209H166.16C166.141 34.5303 166.119 34.5327 166.098 34.5279C166.078 34.5229 166.056 34.5254 166.037 34.5348C165.958 34.5448 165.887 34.5901 165.845 34.6582C165.796 34.7355 165.772 34.8265 165.777 34.9183V43.5931C165.776 43.7328 165.783 43.8724 165.797 44.0114C165.808 44.1317 165.893 44.2326 166.009 44.2646C166.069 44.2835 166.132 44.2906 166.195 44.2854C166.262 44.2808 166.329 44.2785 166.393 44.2785H167.05C167.14 44.2785 167.223 44.2762 167.296 44.2715C167.364 44.2688 167.431 44.2474 167.488 44.2098C167.545 44.1587 167.582 44.088 167.59 44.0114C167.601 43.9298 167.632 43.8522 167.679 43.7851C167.697 43.7215 167.748 43.703 167.829 43.7303C167.859 43.7403 167.886 43.7542 167.912 43.7716C167.939 43.7897 167.967 43.8082 167.994 43.8263C168.039 43.8714 168.087 43.9127 168.138 43.9497C168.188 43.9863 168.241 44.0229 168.295 44.0591C168.423 44.1416 168.561 44.2062 168.706 44.2511C168.851 44.2966 169.011 44.3425 169.185 44.3879C169.239 44.3972 169.294 44.4041 169.348 44.4088C169.399 44.4124 169.45 44.4192 169.499 44.4292H169.582C169.653 44.4501 169.726 44.4616 169.8 44.4635C169.874 44.4698 169.948 44.4629 170.019 44.4431H170.142C170.199 44.4337 170.256 44.4291 170.314 44.4292C170.372 44.4293 170.43 44.4201 170.485 44.4018C170.585 44.3745 170.679 44.349 170.766 44.3262C170.852 44.3034 170.937 44.2736 171.018 44.2372C171.395 44.0819 171.728 43.8375 171.99 43.5249C172.249 43.2022 172.457 42.8417 172.606 42.456C172.652 42.3527 172.687 42.2446 172.709 42.1337C172.731 42.0196 172.757 41.9078 172.784 41.7979C172.799 41.7348 172.808 41.6706 172.812 41.6059C172.829 41.5364 172.838 41.4652 172.839 41.3935C172.839 41.3219 172.848 41.2505 172.866 41.1811C172.866 41.1422 172.868 41.1033 172.873 41.0647C172.878 41.0262 172.881 40.9873 172.88 40.9483C172.891 40.8551 172.895 40.7612 172.893 40.6673ZM170.916 41.3319C170.898 41.4476 170.873 41.5621 170.841 41.6746H170.841C170.76 41.9364 170.642 42.1856 170.492 42.4147C170.342 42.6312 170.136 42.802 169.896 42.9081C169.823 42.9353 169.748 42.956 169.671 42.9698C169.593 42.9832 169.509 42.9994 169.417 43.0175C169.363 43.0272 169.308 43.0296 169.253 43.0245C169.207 43.0228 169.161 43.016 169.116 43.0041C169.091 43.0043 169.066 43.002 169.041 42.9972C169.021 42.9928 169 42.9905 168.979 42.9902C168.819 42.9519 168.667 42.887 168.528 42.7982C168.33 42.6826 168.163 42.5204 168.042 42.3257C167.918 42.1165 167.819 41.8935 167.748 41.6611C167.721 41.5909 167.705 41.5169 167.7 41.4418C167.695 41.3632 167.683 41.2852 167.666 41.2085C167.641 41.1191 167.628 41.0271 167.625 40.9344C167.614 40.8339 167.619 40.7323 167.638 40.633C167.647 40.5973 167.65 40.5602 167.645 40.5236C167.64 40.4868 167.643 40.4496 167.652 40.4137C167.65 40.3676 167.654 40.3215 167.666 40.2769C167.684 40.2027 167.696 40.1269 167.7 40.0506C167.704 39.9733 167.721 39.8971 167.748 39.8247C167.831 39.567 167.946 39.3208 168.09 39.0915C168.236 38.8685 168.446 38.6943 168.692 38.5912C168.747 38.5731 168.801 38.5568 168.856 38.5434C168.911 38.5295 168.971 38.5137 169.035 38.4952C169.067 38.4957 169.098 38.4934 169.13 38.4882C169.162 38.4837 169.193 38.4815 169.225 38.4817C169.596 38.4552 169.962 38.5758 170.245 38.8175C170.482 39.0473 170.666 39.3253 170.786 39.6327C170.822 39.7057 170.846 39.7845 170.855 39.8655C170.864 39.954 170.883 40.0412 170.909 40.1261C170.938 40.2451 170.955 40.3668 170.957 40.4892C170.961 40.631 170.961 40.7726 170.957 40.914C170.953 41.0541 170.939 41.1936 170.916 41.3319Z" fill="#A7A8AA"/>
<path d="M173.151 37.1795H174.465C174.546 37.1773 174.626 37.1961 174.697 37.2342C174.813 37.3164 174.893 37.4386 174.923 37.5769C174.964 37.7323 175.008 37.8742 175.053 38.0017C175.099 38.1134 175.138 38.2279 175.17 38.3444C175.201 38.4611 175.239 38.5756 175.286 38.6871C175.359 38.8972 175.427 39.105 175.491 39.3104C175.555 39.5163 175.623 39.7197 175.696 39.9207L175.984 40.7837C176.011 40.8663 176.036 40.9508 176.059 41.0374C176.082 41.1241 176.112 41.2089 176.148 41.291C176.176 41.3643 176.204 41.4464 176.237 41.5378C176.261 41.624 176.347 41.6775 176.435 41.6611C176.448 41.6462 176.465 41.6345 176.483 41.6268C176.502 41.6191 176.518 41.6074 176.531 41.5925C176.558 41.5485 176.58 41.5026 176.6 41.4552C176.617 41.4098 176.636 41.3643 176.654 41.3184C176.701 41.2146 176.737 41.1067 176.764 40.9961C176.792 40.882 176.823 40.7703 176.859 40.6604C176.987 40.2768 177.11 39.8978 177.229 39.5232C177.347 39.1485 177.47 38.7694 177.598 38.3857C177.645 38.2577 177.683 38.132 177.715 38.0087C177.746 37.8854 177.785 37.7641 177.832 37.6456C177.859 37.5728 177.884 37.502 177.907 37.4332C177.93 37.3634 177.975 37.3033 178.036 37.2621C178.095 37.2148 178.167 37.1883 178.242 37.1865C178.323 37.1818 178.415 37.1795 178.515 37.1795H179.351C179.437 37.1793 179.524 37.1839 179.61 37.1934C179.681 37.1979 179.749 37.2269 179.802 37.2755C179.857 37.3457 179.868 37.4414 179.83 37.5222C179.811 37.5965 179.788 37.6697 179.761 37.7416C179.733 37.8149 179.706 37.8876 179.679 37.9609C179.551 38.2804 179.428 38.6071 179.309 38.9408C179.19 39.2742 179.067 39.6009 178.939 39.9207C178.885 40.0575 178.835 40.1968 178.789 40.3385C178.743 40.4804 178.693 40.6197 178.638 40.7564C178.593 40.8843 178.548 41.0077 178.502 41.1264C178.456 41.2451 178.411 41.3685 178.365 41.4965C178.183 41.9533 178.012 42.4124 177.852 42.8738C177.692 43.3352 177.521 43.7897 177.339 44.2372C177.313 44.2949 177.293 44.3546 177.277 44.4157C177.262 44.4724 177.242 44.5274 177.216 44.5799C177.143 44.7533 177.074 44.9224 177.01 45.0872C176.946 45.2514 176.878 45.4089 176.805 45.5598C176.733 45.7079 176.646 45.8479 176.545 45.9776C176.44 46.1097 176.315 46.2252 176.176 46.3203C176.055 46.4035 175.924 46.4704 175.786 46.5193C175.644 46.5693 175.491 46.6173 175.327 46.663C175.255 46.681 175.182 46.6902 175.108 46.6904C175.034 46.6903 174.961 46.6995 174.889 46.7177H174.273C174.172 46.7177 174.075 46.7131 173.979 46.7043C173.883 46.695 173.796 46.6834 173.718 46.67C173.658 46.6624 173.599 46.6413 173.548 46.6083C173.505 46.576 173.473 46.5301 173.459 46.478C173.445 46.4279 173.429 46.3662 173.411 46.2929V45.4707C173.411 45.2973 173.465 45.1874 173.575 45.142C173.634 45.1208 173.697 45.1092 173.76 45.1076C173.827 45.1017 173.894 45.1086 173.958 45.128H174.465C174.501 45.1189 174.537 45.1144 174.574 45.1146C174.612 45.1141 174.65 45.1047 174.683 45.0872C174.956 45.0154 175.166 44.7993 175.231 44.5252C175.255 44.4723 175.273 44.4171 175.286 44.3605C175.304 44.298 175.304 44.2315 175.286 44.169C175.268 44.1254 175.259 44.0788 175.259 44.0317C175.258 43.9847 175.249 43.9383 175.231 43.8949C175.176 43.7122 175.117 43.5316 175.053 43.3533C174.989 43.1752 174.921 42.9994 174.847 42.826C174.774 42.6525 174.708 42.479 174.649 42.3052C174.59 42.1318 174.524 41.9582 174.451 41.7844C174.406 41.677 174.367 41.567 174.334 41.4552C174.302 41.3435 174.263 41.2338 174.219 41.1264C174.072 40.7795 173.938 40.4232 173.815 40.0575C173.692 39.692 173.557 39.3357 173.411 38.9886C173.395 38.9614 173.386 38.9309 173.383 38.8995C173.381 38.8723 173.372 38.8461 173.356 38.8239C173.283 38.6616 173.222 38.4945 173.171 38.324C173.122 38.1574 173.06 37.9947 172.987 37.8375C172.968 37.7823 172.938 37.7024 172.898 37.5978C172.857 37.5143 172.85 37.4188 172.877 37.3302C172.907 37.2551 172.975 37.2025 173.055 37.1934C173.069 37.1846 173.086 37.1821 173.102 37.1864C173.119 37.1908 173.136 37.1883 173.151 37.1795Z" fill="#A7A8AA"/>
<path d="M187.228 34.5074H188.392C188.492 34.5074 188.587 34.5121 188.679 34.5209C188.755 34.524 188.827 34.5529 188.884 34.603C188.926 34.6619 188.952 34.7304 188.96 34.8019C188.974 34.895 188.983 34.9888 188.986 35.0829C188.991 35.1836 188.991 35.2837 188.986 35.3844C188.982 35.485 188.98 35.5764 188.98 35.6584V40.7429C188.98 40.953 188.982 41.1698 188.986 41.3935C188.993 41.5986 188.972 41.8037 188.925 42.0033C188.908 42.0444 188.901 42.0892 188.905 42.1337C188.909 42.1781 188.902 42.2228 188.885 42.264C188.856 42.347 188.834 42.4317 188.816 42.5176C188.797 42.6046 188.77 42.6895 188.734 42.7708C188.565 43.2309 188.265 43.6313 187.871 43.9223C187.741 44.0148 187.601 44.0929 187.454 44.1551C187.304 44.2191 187.146 44.2785 186.982 44.3332C186.909 44.3513 186.839 44.3675 186.77 44.3814C186.701 44.3949 186.63 44.4106 186.558 44.4292C186.479 44.448 186.399 44.4572 186.318 44.4565C186.233 44.4564 186.148 44.4656 186.065 44.4839H185.914C185.841 44.5042 185.764 44.5113 185.688 44.5048C185.612 44.5029 185.536 44.4914 185.463 44.4704C185.39 44.4724 185.316 44.4678 185.244 44.4565C185.155 44.4385 185.066 44.4248 184.977 44.4157C184.896 44.4075 184.816 44.3937 184.738 44.3744C184.637 44.3378 184.537 44.3058 184.436 44.2785C184.337 44.2513 184.241 44.2147 184.149 44.169C183.856 44.0403 183.587 43.8618 183.355 43.6413C183.122 43.4231 182.936 43.1596 182.808 42.8668C182.771 42.7755 182.739 42.6841 182.712 42.5928C182.684 42.5014 182.657 42.4059 182.63 42.3052C182.614 42.2516 182.605 42.1963 182.603 42.1406C182.585 42.102 182.578 42.0595 182.582 42.0173C182.585 41.9751 182.578 41.9326 182.561 41.8939C182.551 41.8701 182.546 41.8442 182.547 41.8183V41.6059C182.538 41.5586 182.534 41.5104 182.534 41.4622V41.3184C182.534 41.1904 182.538 41.0694 182.547 40.9553C182.546 40.8599 182.592 40.7702 182.67 40.7155C182.76 40.6655 182.862 40.6418 182.965 40.6469H183.314C183.397 40.6469 183.492 40.6446 183.601 40.6399C183.711 40.6353 183.818 40.6353 183.923 40.6399C184.02 40.6436 184.116 40.6551 184.211 40.6743C184.278 40.6813 184.34 40.7161 184.381 40.7703C184.448 40.876 184.475 41.0024 184.457 41.1264C184.443 41.2637 184.45 41.4025 184.478 41.5377C184.495 41.5887 184.506 41.6415 184.512 41.695C184.517 41.7487 184.529 41.8016 184.546 41.8526C184.579 41.9735 184.625 42.0907 184.682 42.2023C184.738 42.3084 184.818 42.3999 184.916 42.4694C185.052 42.5645 185.205 42.6341 185.367 42.6748C185.559 42.73 185.762 42.7348 185.956 42.6888C185.995 42.6719 186.037 42.6627 186.079 42.6614C186.117 42.661 186.155 42.6517 186.188 42.634C186.447 42.5397 186.648 42.3329 186.736 42.072C186.772 41.9915 186.795 41.9059 186.804 41.8183C186.813 41.7316 186.826 41.6384 186.845 41.5378V41.3801C186.845 41.3272 186.85 41.2745 186.859 41.2224C186.868 41.1704 186.87 41.1174 186.865 41.0648C186.861 41.0054 186.859 40.9484 186.859 40.8936V35.2471C186.859 35.1469 186.856 35.0417 186.851 34.9322C186.844 34.8367 186.865 34.7411 186.914 34.6582C186.966 34.5918 187.038 34.5437 187.119 34.5209C187.156 34.5234 187.193 34.5188 187.228 34.5074V34.5074Z" fill="#A7A8AA"/>
<path fill-rule="evenodd" clip-rule="evenodd" d="M192.442 34.9322C192.451 34.8146 192.417 34.6976 192.347 34.603C192.294 34.5543 192.226 34.5253 192.155 34.5209C192.068 34.5118 191.982 34.5073 191.895 34.5075H190.896C190.873 34.5079 190.85 34.5101 190.828 34.5139C190.805 34.5183 190.782 34.5207 190.759 34.5209C190.722 34.5395 190.689 34.5575 190.656 34.5756C190.624 34.5952 190.598 34.6239 190.581 34.6582C190.553 34.7061 190.536 34.7602 190.533 34.8158C190.528 34.8752 190.527 34.9415 190.527 35.0143C190.527 35.0876 190.524 35.1743 190.519 35.2749C190.515 35.3756 190.515 35.4734 190.519 35.5694C190.523 35.6567 190.532 35.7436 190.547 35.8296C190.552 35.8896 190.579 35.9457 190.622 35.9873C190.679 36.0337 190.748 36.0625 190.82 36.0698C190.909 36.0793 190.999 36.0838 191.088 36.0833H191.854C191.948 36.0835 192.041 36.079 192.135 36.0698C192.212 36.0642 192.286 36.0354 192.347 35.9873C192.419 35.9213 192.455 35.8242 192.442 35.7271V34.9322ZM192.429 43.9905C192.437 43.863 192.442 43.7076 192.442 43.5249L192.442 37.7824C192.442 37.6915 192.44 37.6043 192.436 37.5222C192.435 37.4535 192.414 37.3864 192.374 37.3302C192.351 37.2883 192.311 37.2584 192.264 37.2482C192.213 37.2378 192.163 37.224 192.114 37.2069H192.005C191.948 37.1975 191.891 37.1954 191.834 37.2004C191.765 37.205 191.704 37.2069 191.648 37.2069H190.965C190.941 37.2168 190.914 37.2192 190.889 37.2138C190.864 37.2085 190.837 37.2109 190.814 37.2208C190.729 37.2237 190.649 37.2627 190.594 37.328C190.539 37.3934 190.515 37.479 190.527 37.5635V43.6209C190.527 43.7303 190.528 43.8332 190.533 43.9288C190.535 44.0166 190.566 44.1013 190.622 44.169C190.666 44.2184 190.728 44.248 190.793 44.2511C190.873 44.2603 190.952 44.2648 191.032 44.2645H191.799C191.872 44.2645 191.941 44.2673 192.005 44.2715C192.065 44.2767 192.125 44.2697 192.183 44.2511C192.315 44.2307 192.416 44.1235 192.429 43.9905Z" fill="#A7A8AA"/>
<path d="M193.51 37.2069H194.509C194.609 37.2069 194.706 37.2092 194.797 37.2138C194.878 37.216 194.957 37.2371 195.029 37.2755C195.143 37.3597 195.219 37.4853 195.241 37.6252C195.277 37.7757 195.321 37.9243 195.372 38.0704C195.472 38.3718 195.567 38.6802 195.659 38.9955C195.75 39.3104 195.845 39.6233 195.946 39.9341C196.019 40.1535 196.088 40.3773 196.152 40.6056C196.216 40.8343 196.288 41.0536 196.37 41.2637C196.398 41.3458 196.428 41.4325 196.459 41.5238C196.485 41.6109 196.568 41.6681 196.658 41.6611C196.67 41.6476 196.684 41.6361 196.699 41.6268C196.714 41.6173 196.728 41.6058 196.74 41.5925C196.766 41.5487 196.789 41.5028 196.808 41.4552C196.827 41.4098 196.844 41.3592 196.863 41.3045C196.909 41.2036 196.943 41.098 196.966 40.9896C196.988 40.8826 197.018 40.7772 197.055 40.6743C197.183 40.2903 197.304 39.9043 197.418 39.5163C197.532 39.1282 197.652 38.7422 197.78 38.3584C197.825 38.2496 197.862 38.1373 197.889 38.0226C197.915 37.9134 197.947 37.8058 197.986 37.7003C198.004 37.6258 198.027 37.5526 198.054 37.481C198.079 37.4118 198.121 37.3503 198.177 37.3029C198.234 37.2706 198.294 37.2431 198.355 37.2208C198.412 37.2023 198.473 37.1954 198.533 37.2004C198.597 37.2051 198.656 37.2069 198.711 37.2069H199.381C199.481 37.2069 199.575 37.2092 199.662 37.2139C199.735 37.2132 199.806 37.2402 199.86 37.2895C199.916 37.3389 199.94 37.4154 199.922 37.4879C199.912 37.5599 199.896 37.631 199.874 37.7003C199.829 37.8283 199.782 37.9633 199.737 38.1047C199.692 38.2466 199.646 38.3811 199.6 38.5091C199.574 38.569 199.554 38.6309 199.539 38.6941C199.525 38.7535 199.509 38.8105 199.491 38.8653C199.446 38.9633 199.407 39.064 199.375 39.1667C199.342 39.2673 199.308 39.3678 199.272 39.4681C199.262 39.497 199.255 39.5268 199.252 39.5572C199.247 39.5891 199.235 39.6196 199.217 39.6467C199.163 39.7835 199.115 39.923 199.074 40.0645C199.032 40.2064 198.989 40.3457 198.943 40.4823C198.843 40.7564 198.748 41.0374 198.656 41.3254C198.564 41.6129 198.464 41.8938 198.355 42.168C198.309 42.296 198.268 42.4217 198.232 42.545C198.195 42.6684 198.154 42.794 198.109 42.9216C198.093 42.9596 198.079 42.9987 198.068 43.0384C198.059 43.0704 198.045 43.1089 198.026 43.1548C197.99 43.2554 197.956 43.3579 197.923 43.4632C197.892 43.568 197.858 43.671 197.822 43.7716C197.775 43.8722 197.735 43.9654 197.698 44.0521C197.66 44.1407 197.585 44.2082 197.493 44.2372C197.419 44.2647 197.339 44.2764 197.26 44.2715C197.178 44.2673 197.095 44.2645 197.014 44.2645H195.83C195.742 44.2665 195.656 44.2477 195.576 44.2098C195.515 44.1676 195.468 44.108 195.44 44.0387C195.412 43.9701 195.385 43.8949 195.358 43.8124C195.311 43.7004 195.27 43.586 195.235 43.4697C195.198 43.3514 195.157 43.2369 195.111 43.1274C195.095 43.0952 195.083 43.0604 195.077 43.0245C195.07 42.9845 195.059 42.9454 195.043 42.9081C194.998 42.7982 194.956 42.6841 194.92 42.5654C194.884 42.4467 194.842 42.3279 194.797 42.2092C194.779 42.1671 194.765 42.1235 194.756 42.0789C194.745 42.0344 194.731 41.9908 194.714 41.9486C194.678 41.8658 194.646 41.7811 194.619 41.6949C194.591 41.6082 194.564 41.5238 194.536 41.4417C194.518 41.4155 194.509 41.3844 194.509 41.3527C194.509 41.3209 194.5 41.2898 194.482 41.2637C194.446 41.1836 194.417 41.1011 194.393 41.0169C194.368 40.9286 194.338 40.8416 194.304 40.7563C194.222 40.5463 194.145 40.3292 194.071 40.1052C193.998 39.8817 193.925 39.6602 193.853 39.4407C193.753 39.1966 193.666 38.9474 193.592 38.6941C193.519 38.4427 193.437 38.1937 193.346 37.947L193.223 37.5769C193.213 37.5436 193.206 37.5092 193.202 37.4744C193.197 37.4343 193.205 37.3936 193.223 37.3576C193.262 37.2845 193.333 37.2339 193.415 37.2208C193.447 37.2229 193.48 37.2182 193.51 37.2069Z" fill="#A7A8AA"/>
<path fill-rule="evenodd" clip-rule="evenodd" d="M207.36 40.921C207.379 40.8398 207.379 40.7555 207.36 40.6743L207.36 40.5236C207.341 40.4452 207.334 40.3643 207.34 40.2838C207.345 40.2033 207.338 40.1225 207.319 40.0441C207.282 39.9161 207.251 39.7881 207.224 39.6601C207.197 39.534 207.16 39.4103 207.114 39.29C207.094 39.235 207.074 39.1819 207.056 39.1308C207.041 39.0889 207.026 39.0483 207.012 39.009C206.979 38.9218 206.94 38.8372 206.895 38.7558C206.822 38.6459 206.753 38.5388 206.689 38.4335C206.626 38.3287 206.557 38.2257 206.485 38.1251C206.439 38.0985 206.401 38.0609 206.375 38.0157C206.307 37.9391 206.234 37.8681 206.156 37.8033C206.077 37.7372 205.995 37.6754 205.91 37.6182C205.632 37.4293 205.331 37.2794 205.013 37.1726C204.626 37.051 204.221 36.9978 203.815 37.0154C203.747 37.0239 203.679 37.0284 203.611 37.0288C203.542 37.0291 203.473 37.0338 203.405 37.0427C203.259 37.0794 203.12 37.109 202.987 37.1318C202.853 37.1551 202.722 37.1942 202.597 37.2482C201.683 37.6156 200.96 38.3444 200.599 39.2627C200.544 39.3949 200.502 39.5328 200.476 39.674C200.448 39.8201 200.417 39.9708 200.381 40.1261L200.339 40.4549V40.6195C200.33 40.6692 200.328 40.72 200.333 40.7702C200.337 40.825 200.339 40.8751 200.339 40.921L200.367 41.3045C200.375 41.4258 200.398 41.5456 200.435 41.6611C200.444 41.6947 200.448 41.729 200.448 41.7636C200.449 41.7983 200.453 41.8329 200.462 41.8665C200.506 41.9711 200.543 42.0786 200.572 42.1884C200.599 42.2942 200.636 42.3974 200.682 42.4968C200.821 42.8069 201.01 43.0917 201.242 43.3398C201.474 43.5849 201.737 43.799 202.023 43.977C202.098 44.0241 202.179 44.0631 202.262 44.0934L202.543 44.1963C202.629 44.2436 202.721 44.2781 202.817 44.2988C202.917 44.3216 203.017 44.3424 203.118 44.3605C203.166 44.3793 203.217 44.3886 203.268 44.3879C203.32 44.3874 203.371 44.3968 203.419 44.4157C203.476 44.4332 203.537 44.4378 203.597 44.4292C203.66 44.4198 203.725 44.4198 203.788 44.4292C203.841 44.4389 203.893 44.4457 203.946 44.4496C203.999 44.4549 204.053 44.4479 204.103 44.4292H204.253C204.292 44.4198 204.331 44.4174 204.37 44.4222C204.409 44.4269 204.448 44.4247 204.486 44.4157C204.589 44.3892 204.695 44.3708 204.801 44.3605C204.904 44.3507 205.005 44.3278 205.102 44.2924C205.443 44.1853 205.766 44.0283 206.06 43.8263C206.331 43.6279 206.562 43.3817 206.744 43.1C206.814 43.0037 206.879 42.9028 206.936 42.7981C206.995 42.688 207.045 42.5736 207.087 42.4559C207.106 42.4032 207.113 42.347 207.107 42.2913C207.11 42.2419 207.087 42.1946 207.045 42.1679C206.987 42.1322 206.922 42.1089 206.854 42.0993H206.717C206.667 42.0806 206.613 42.0736 206.56 42.0789C206.5 42.0835 206.443 42.0859 206.388 42.0859C206.27 42.0859 206.14 42.0835 205.998 42.0789C205.879 42.0704 205.759 42.0916 205.649 42.1406C205.577 42.1671 205.514 42.2121 205.465 42.2709C205.415 42.3303 205.367 42.3919 205.321 42.4559C205.25 42.5433 205.164 42.6174 205.068 42.6748C204.968 42.7395 204.866 42.7991 204.76 42.8534C204.687 42.8807 204.612 42.9058 204.534 42.9285C204.456 42.9515 204.372 42.9721 204.281 42.9902H204.158C204.05 43.0095 203.939 43.0142 203.829 43.0041C203.728 42.9987 203.627 42.9849 203.528 42.9628C203.45 42.9365 203.37 42.9159 203.288 42.9011C203.208 42.8864 203.132 42.8561 203.063 42.8121C202.896 42.7162 202.749 42.5881 202.632 42.4351C202.515 42.2698 202.425 42.0871 202.365 41.8939C202.347 41.8429 202.336 41.79 202.331 41.7362C202.325 41.6825 202.314 41.6296 202.296 41.5786C202.287 41.5303 202.292 41.4805 202.31 41.4348C202.342 41.3405 202.411 41.2636 202.502 41.2224C202.552 41.2034 202.606 41.1941 202.659 41.195H206.184C206.265 41.195 206.359 41.1974 206.463 41.202C206.569 41.2066 206.674 41.2066 206.778 41.202C206.875 41.1981 206.971 41.189 207.066 41.1746C207.138 41.1666 207.206 41.1406 207.265 41.0991C207.319 41.0553 207.354 40.9909 207.36 40.921ZM205.328 39.5298C205.38 39.6376 205.372 39.7648 205.307 39.8655C205.239 39.9494 205.134 39.9933 205.027 39.9824C204.885 39.987 204.751 39.9889 204.623 39.9889H202.734C202.63 39.9944 202.525 39.9708 202.433 39.9207C202.389 39.8861 202.358 39.8378 202.344 39.7834C202.331 39.7274 202.328 39.6692 202.338 39.6123C202.347 39.5513 202.363 39.4914 202.385 39.4338C202.408 39.3749 202.429 39.3266 202.447 39.29C202.626 38.9262 202.948 38.6533 203.336 38.5364C203.385 38.5176 203.436 38.5061 203.487 38.5021C203.539 38.4984 203.589 38.4868 203.637 38.4678C203.669 38.4589 203.702 38.4589 203.734 38.4678C203.766 38.4776 203.801 38.4727 203.829 38.4543C204.135 38.4457 204.437 38.5191 204.705 38.6667C204.922 38.8071 205.097 39.0036 205.211 39.2353C205.239 39.2994 205.278 39.3976 205.328 39.5298Z" fill="#A7A8AA"/>
</svg>
